<svg width="197" height="43" viewBox="0 0 197 43" fill="none" xmlns="http://www.w3.org/2000/svg">
<g filter="url(#filter0_d_2_840)">
<rect x="4" width="175" height="35" rx="10" fill="#292E1E"/>
</g>
<path d="M38.72 26.24C37.456 26.24 36.288 26.032 35.216 25.616C34.16 25.184 33.24 24.584 32.456 23.816C31.688 23.032 31.088 22.112 30.656 21.056C30.24 19.984 30.032 18.816 30.032 17.552C30.032 16.304 30.248 15.152 30.68 14.096C31.128 13.04 31.752 12.12 32.552 11.336C33.352 10.552 34.288 9.944 35.36 9.512C36.448 9.08 37.624 8.864 38.888 8.864C39.688 8.864 40.472 8.968 41.24 9.176C42.008 9.384 42.72 9.696 43.376 10.112C44.048 10.512 44.624 11 45.104 11.576L42.584 14.432C42.088 13.888 41.528 13.464 40.904 13.16C40.296 12.856 39.616 12.704 38.864 12.704C38.224 12.704 37.616 12.816 37.04 13.04C36.48 13.264 35.992 13.592 35.576 14.024C35.16 14.456 34.832 14.968 34.592 15.56C34.352 16.152 34.232 16.824 34.232 17.576C34.232 18.312 34.344 18.984 34.568 19.592C34.808 20.184 35.144 20.696 35.576 21.128C36.024 21.544 36.552 21.864 37.16 22.088C37.784 22.312 38.472 22.424 39.224 22.424C39.72 22.424 40.192 22.36 40.64 22.232C41.104 22.088 41.536 21.888 41.936 21.632C42.336 21.376 42.68 21.088 42.968 20.768L44.96 23.936C44.576 24.368 44.048 24.76 43.376 25.112C42.72 25.464 41.984 25.744 41.168 25.952C40.368 26.144 39.552 26.24 38.72 26.24ZM55.3846 26.24C54.1206 26.24 52.9526 26.024 51.8806 25.592C50.8246 25.16 49.9046 24.56 49.1206 23.792C48.3526 23.008 47.7526 22.088 47.3206 21.032C46.8886 19.96 46.6726 18.792 46.6726 17.528C46.6726 16.28 46.8886 15.128 47.3206 14.072C47.7526 13 48.3526 12.072 49.1206 11.288C49.9046 10.504 50.8246 9.896 51.8806 9.464C52.9526 9.032 54.1206 8.816 55.3846 8.816C56.6326 8.816 57.7846 9.032 58.8406 9.464C59.8966 9.896 60.8086 10.504 61.5766 11.288C62.3606 12.072 62.9686 13 63.4006 14.072C63.8326 15.128 64.0486 16.288 64.0486 17.552C64.0486 18.8 63.8326 19.952 63.4006 21.008C62.9686 22.064 62.3606 22.984 61.5766 23.768C60.8086 24.552 59.8966 25.16 58.8406 25.592C57.7846 26.024 56.6326 26.24 55.3846 26.24ZM55.3846 22.376C56.0406 22.376 56.6406 22.256 57.1846 22.016C57.7286 21.776 58.2006 21.44 58.6006 21.008C59.0166 20.576 59.3366 20.064 59.5606 19.472C59.7846 18.88 59.8966 18.24 59.8966 17.552C59.8966 16.848 59.7846 16.2 59.5606 15.608C59.3366 15.016 59.0166 14.504 58.6006 14.072C58.2006 13.624 57.7286 13.28 57.1846 13.04C56.6406 12.8 56.0406 12.68 55.3846 12.68C54.7286 12.68 54.1206 12.8 53.5606 13.04C53.0166 13.28 52.5366 13.624 52.1206 14.072C51.7206 14.504 51.4086 15.016 51.1846 15.608C50.9606 16.2 50.8486 16.848 50.8486 17.552C50.8486 18.48 51.0406 19.312 51.4246 20.048C51.8246 20.768 52.3606 21.336 53.0326 21.752C53.7206 22.168 54.5046 22.376 55.3846 22.376ZM67.1583 26V9.2H70.8303L76.9263 19.112L74.3343 19.088L80.5023 9.2H84.0543V26H80.0703V20.912C80.0703 19.44 80.1023 18.12 80.1663 16.952C80.2463 15.768 80.3743 14.608 80.5503 13.472L81.0063 14.72L76.3743 21.896H74.7423L70.2063 14.768L70.6623 13.472C70.8543 14.544 70.9823 15.656 71.0463 16.808C71.1263 17.944 71.1663 19.312 71.1663 20.912V26H67.1583ZM88.2286 26V9.2H95.5006C96.5566 9.2 97.5006 9.44 98.3326 9.92C99.1646 10.4 99.8206 11.056 100.301 11.888C100.781 12.704 101.021 13.64 101.021 14.696C101.021 15.768 100.781 16.736 100.301 17.6C99.8206 18.464 99.1646 19.144 98.3326 19.64C97.5006 20.136 96.5566 20.384 95.5006 20.384H92.3326V26H88.2286ZM92.2846 16.76H94.9486C95.3006 16.76 95.6126 16.68 95.8846 16.52C96.1726 16.344 96.4046 16.104 96.5806 15.8C96.7566 15.496 96.8446 15.152 96.8446 14.768C96.8446 14.368 96.7566 14.024 96.5806 13.736C96.4046 13.448 96.1726 13.224 95.8846 13.064C95.6126 12.904 95.3006 12.824 94.9486 12.824H92.2846V16.76ZM104.119 26V9.2H111.727C112.815 9.2 113.791 9.432 114.655 9.896C115.519 10.36 116.199 11 116.695 11.816C117.207 12.616 117.463 13.536 117.463 14.576C117.463 15.632 117.207 16.576 116.695 17.408C116.199 18.24 115.519 18.904 114.655 19.4C113.791 19.88 112.815 20.12 111.727 20.12H108.031V26H104.119ZM113.455 26L109.183 18.392L113.383 17.792L118.135 26.024L113.455 26ZM108.031 16.928H111.367C111.783 16.928 112.143 16.84 112.447 16.664C112.767 16.472 113.007 16.216 113.167 15.896C113.343 15.576 113.431 15.208 113.431 14.792C113.431 14.36 113.327 13.984 113.119 13.664C112.927 13.344 112.647 13.096 112.279 12.92C111.927 12.728 111.503 12.632 111.007 12.632H108.031V16.928ZM118.93 26L125.578 9.2H129.058L135.658 26H131.53L128.338 17.48C128.226 17.144 128.098 16.784 127.954 16.4C127.826 16.016 127.698 15.616 127.57 15.2C127.442 14.784 127.322 14.384 127.21 14C127.098 13.616 127.002 13.256 126.922 12.92L127.618 12.896C127.522 13.296 127.418 13.688 127.306 14.072C127.194 14.456 127.074 14.84 126.946 15.224C126.818 15.608 126.682 15.992 126.538 16.376C126.41 16.744 126.274 17.128 126.13 17.528L122.962 26H118.93ZM122.098 22.784L123.394 19.664H131.074L132.37 22.784H122.098ZM137.752 26V9.2H145.36C146.448 9.2 147.424 9.432 148.288 9.896C149.152 10.36 149.832 11 150.328 11.816C150.84 12.616 151.096 13.536 151.096 14.576C151.096 15.632 150.84 16.576 150.328 17.408C149.832 18.24 149.152 18.904 148.288 19.4C147.424 19.88 146.448 20.12 145.36 20.12H141.664V26H137.752ZM147.088 26L142.816 18.392L147.016 17.792L151.768 26.024L147.088 26ZM141.664 16.928H145C145.416 16.928 145.776 16.84 146.08 16.664C146.4 16.472 146.64 16.216 146.8 15.896C146.976 15.576 147.064 15.208 147.064 14.792C147.064 14.36 146.96 13.984 146.752 13.664C146.56 13.344 146.28 13.096 145.912 12.92C145.56 12.728 145.136 12.632 144.64 12.632H141.664V16.928Z" fill="white"/>
<defs>
<filter id="filter0_d_2_840" x="0" y="0" width="183" height="43" filterUnits="userSpaceOnUse" color-interpolation-filters="sRGB">
<feFlood flood-opacity="0" result="BackgroundImageFix"/>
<feColorMatrix in="SourceAlpha" type="matrix" values="0 0 0 0 0 0 0 0 0 0 0 0 0 0 0 0 0 0 127 0" result="hardAlpha"/>
<feOffset dy="4"/>
<feGaussianBlur stdDeviation="2"/>
<feComposite in2="hardAlpha" operator="out"/>
<feColorMatrix type="matrix" values="0 0 0 0 0 0 0 0 0 0 0 0 0 0 0 0 0 0 0.25 0"/>
<feBlend mode="normal" in2="BackgroundImageFix" result="effect1_dropShadow_2_840"/>
<feBlend mode="normal" in="SourceGraphic" in2="effect1_dropShadow_2_840" result="shape"/>
</filter>
</defs>
</svg>
