<svg width="142" height="86" viewBox="0 0 142 86" fill="none" xmlns="http://www.w3.org/2000/svg">
<path d="M99.4 0.25H42.6C19.0724 0.25 0 19.198 0 43C0 66.802 19.0724 85.75 42.6 85.75H99.4C122.919 85.75 142 66.6105 142 43C142 19.3895 122.919 0.25 99.4 0.25ZM54.8253 48.3438H47.7253V55.4688C47.7253 58.4078 45.3335 60.8125 42.4047 60.8125C39.476 60.8125 37.0753 58.4078 37.0753 55.4688V48.3438L30.175 48.1434C27.2462 48.1434 24.6503 45.9391 24.6503 43C24.6503 40.0609 27.0577 37.654 29.9864 37.654L37.0753 37.6562V30.5312C37.0753 27.5922 39.476 25.1875 42.4047 25.1875C45.3335 25.1875 47.7253 27.5922 47.7253 30.5312V37.6562H54.8253C57.7541 37.6562 60.1547 40.0609 60.1547 43C60.1503 45.9391 57.9538 48.3438 54.8253 48.3438ZM95.6503 62.5938C90.7424 62.5938 86.975 58.6149 86.975 53.8879C86.975 49.1609 90.9399 44.9816 95.6503 44.9816C100.361 44.9816 104.326 48.9627 104.326 53.8879C104.326 58.813 100.753 62.5938 95.6503 62.5938ZM109.85 41.2188C104.942 41.2188 101.175 37.2399 101.175 32.5129C101.175 27.7859 105.14 23.6066 109.85 23.6066C114.758 23.6066 118.526 27.5877 118.526 32.5129C118.526 37.438 114.953 41.2188 109.85 41.2188Z" fill="white"/>
</svg>
