<svg width="47" height="57" viewBox="0 0 47 57" fill="none" xmlns="http://www.w3.org/2000/svg">
<g clip-path="url(#clip0_10_464)">
<path d="M23.2576 15.6285C16.7025 15.6285 11.4151 21.2131 11.4151 28.1368C11.4151 35.0605 16.7025 40.6451 23.2576 40.6451C29.8127 40.6451 35.1001 35.0605 35.1001 28.1368C35.1001 21.2131 29.8127 15.6285 23.2576 15.6285ZM23.2576 36.2689C19.0215 36.2689 15.5584 32.622 15.5584 28.1368C15.5584 23.6517 19.0112 20.0048 23.2576 20.0048C27.504 20.0048 30.9567 23.6517 30.9567 28.1368C30.9567 32.622 27.4937 36.2689 23.2576 36.2689ZM38.3467 15.1168C38.3467 16.7389 37.1099 18.0344 35.5845 18.0344C34.0488 18.0344 32.8223 16.728 32.8223 15.1168C32.8223 13.5057 34.0591 12.1993 35.5845 12.1993C37.1099 12.1993 38.3467 13.5057 38.3467 15.1168ZM46.1902 18.0779C46.015 14.1697 45.1698 10.7079 42.4591 7.8557C39.7587 5.00349 36.4812 4.11082 32.781 3.91487C28.9675 3.68626 17.5373 3.68626 13.7238 3.91487C10.034 4.09993 6.75642 4.99261 4.04573 7.84481C1.33505 10.697 0.500198 14.1588 0.314676 18.067C0.0982331 22.0949 0.0982331 34.1678 0.314676 38.1957C0.489891 42.1039 1.33505 45.5657 4.04573 48.4179C6.75642 51.2701 10.0237 52.1628 13.7238 52.3588C17.5373 52.5874 28.9675 52.5874 32.781 52.3588C36.4812 52.1737 39.7587 51.281 42.4591 48.4179C45.1595 45.5657 46.0047 42.1039 46.1902 38.1957C46.4066 34.1678 46.4066 22.1058 46.1902 18.0779ZM41.2635 42.5176C40.4596 44.6513 38.9033 46.2951 36.8728 47.1551C33.8323 48.4288 26.6176 48.1349 23.2576 48.1349C19.8976 48.1349 12.6725 48.4179 9.64231 47.1551C7.62218 46.306 6.06586 44.6622 5.25163 42.5176C4.04573 39.3061 4.32401 31.6857 4.32401 28.1368C4.32401 24.5879 4.05604 16.9566 5.25163 13.7561C6.05555 11.6223 7.61188 9.97852 9.64231 9.1185C12.6828 7.84481 19.8976 8.13874 23.2576 8.13874C26.6176 8.13874 33.8426 7.8557 36.8728 9.1185C38.893 9.96763 40.4493 11.6115 41.2635 13.7561C42.4694 16.9675 42.1911 24.5879 42.1911 28.1368C42.1911 31.6857 42.4694 39.317 41.2635 42.5176Z" fill="#292E1E"/>
</g>
<defs>
<clipPath id="clip0_10_464">
<rect width="46.1744" height="55.7377" fill="white" transform="translate(0.160156 0.278809)"/>
</clipPath>
</defs>
</svg>
