<svg width="98" height="60" viewBox="0 0 98 60" fill="none" xmlns="http://www.w3.org/2000/svg">
<path d="M68.6 0.75H29.4C13.1626 0.75 0 13.7145 0 30C0 46.2855 13.1626 59.25 29.4 59.25H68.6C84.8313 59.25 98 46.1545 98 30C98 13.8455 84.8313 0.75 68.6 0.75ZM37.8372 33.6562H32.9372V38.5312C32.9372 40.5422 31.2865 42.1875 29.2652 42.1875C27.244 42.1875 25.5872 40.5422 25.5872 38.5312V33.6562L20.825 33.5191C18.8038 33.5191 17.0122 32.0109 17.0122 30C17.0122 27.9891 18.6736 26.3422 20.6948 26.3422L25.5872 26.3437V21.4687C25.5872 19.4578 27.244 17.8125 29.2652 17.8125C31.2865 17.8125 32.9372 19.4578 32.9372 21.4687V26.3437H37.8372C39.8584 26.3437 41.5153 27.9891 41.5153 30C41.5122 32.0109 39.9963 33.6562 37.8372 33.6562ZM66.0122 43.4062C62.6251 43.4062 60.025 40.6839 60.025 37.4496C60.025 34.2153 62.7613 31.3559 66.0122 31.3559C69.263 31.3559 71.9994 34.0798 71.9994 37.4496C71.9994 40.8194 69.5341 43.4062 66.0122 43.4062ZM75.8122 28.7812C72.4251 28.7812 69.825 26.0589 69.825 22.8246C69.825 19.5903 72.5613 16.7309 75.8122 16.7309C79.1993 16.7309 81.7994 19.4548 81.7994 22.8246C81.7994 26.1945 79.3341 28.7812 75.8122 28.7812Z" fill="white"/>
</svg>
