<svg width="265" height="114" viewBox="0 0 265 114" fill="none" xmlns="http://www.w3.org/2000/svg">
<path d="M99.4 14.25H42.6C19.0724 14.25 0 33.198 0 57C0 80.802 19.0724 99.75 42.6 99.75H99.4C122.919 99.75 142 80.6105 142 57C142 33.3895 122.919 14.25 99.4 14.25ZM54.8253 62.3438H47.7253V69.4688C47.7253 72.4078 45.3335 74.8125 42.4047 74.8125C39.476 74.8125 37.0753 72.4078 37.0753 69.4688V62.3438L30.175 62.1434C27.2462 62.1434 24.6503 59.9391 24.6503 57C24.6503 54.0609 27.0577 51.654 29.9864 51.654L37.0753 51.6562V44.5312C37.0753 41.5922 39.476 39.1875 42.4047 39.1875C45.3335 39.1875 47.7253 41.5922 47.7253 44.5312V51.6562H54.8253C57.7541 51.6562 60.1547 54.0609 60.1547 57C60.1503 59.9391 57.9538 62.3438 54.8253 62.3438ZM95.6503 76.5938C90.7424 76.5938 86.975 72.6149 86.975 67.8879C86.975 63.1609 90.9399 58.9816 95.6503 58.9816C100.361 58.9816 104.326 62.9627 104.326 67.8879C104.326 72.813 100.753 76.5938 95.6503 76.5938ZM109.85 55.2188C104.942 55.2188 101.175 51.2399 101.175 46.5129C101.175 41.7859 105.14 37.6066 109.85 37.6066C114.758 37.6066 118.526 41.5877 118.526 46.5129C118.526 51.438 114.953 55.2188 109.85 55.2188Z" fill="white"/>
<path d="M161.196 38.392C161.196 33.568 162.072 30.04 163.824 27.808C165.576 25.552 168.36 24.424 172.176 24.424C173.424 24.424 174.696 24.64 175.992 25.072C177.312 25.48 178.524 26.092 179.628 26.908L179.016 30.292L178.296 30.616C177.672 29.896 176.772 29.296 175.596 28.816C174.42 28.312 173.28 28.06 172.176 28.06C169.68 28.06 167.868 28.876 166.74 30.508C165.612 32.116 165.048 34.744 165.048 38.392C165.048 40.936 165.264 42.976 165.696 44.512C166.128 46.048 166.8 47.176 167.712 47.896C168.648 48.592 169.872 48.94 171.384 48.94C173.352 48.94 174.816 48.268 175.776 46.924C176.76 45.58 177.252 43.528 177.252 40.768H170.52V37.24H180.744V52H178.728L178.008 48.76C177.384 49.936 176.436 50.872 175.164 51.568C173.892 52.24 172.512 52.576 171.024 52.576C167.736 52.576 165.276 51.424 163.644 49.12C162.012 46.792 161.196 43.216 161.196 38.392ZM185.132 45.988C185.132 44.572 185.444 43.312 186.068 42.208C186.716 41.08 187.592 40.204 188.696 39.58C189.824 38.956 191.072 38.644 192.439 38.644C193.52 38.644 194.588 38.752 195.644 38.968C196.724 39.184 197.576 39.472 198.2 39.832V37.708C198.2 36.244 197.804 35.164 197.012 34.468C196.244 33.772 195.044 33.424 193.412 33.424C191.948 33.424 190.628 33.7 189.452 34.252C188.3 34.78 187.4 35.536 186.752 36.52L186.356 36.448L186.86 32.38C187.676 31.588 188.696 30.976 189.92 30.544C191.168 30.112 192.512 29.896 193.952 29.896C196.424 29.896 198.344 30.508 199.712 31.732C201.104 32.932 201.8 34.66 201.8 36.916V46.636L202.052 52H198.308L198.2 49.84C197.768 50.56 196.952 51.196 195.752 51.748C194.552 52.3 193.328 52.576 192.08 52.576C189.896 52.576 188.192 52 186.968 50.848C185.744 49.672 185.132 48.052 185.132 45.988ZM188.876 45.664C188.876 46.96 189.152 47.884 189.704 48.436C190.28 48.988 191.264 49.264 192.656 49.264C193.592 49.264 194.624 49.06 195.752 48.652C196.904 48.244 197.72 47.776 198.2 47.248V43.18C197.624 42.82 196.82 42.52 195.788 42.28C194.756 42.04 193.712 41.92 192.656 41.92C191.336 41.92 190.376 42.232 189.776 42.856C189.176 43.48 188.876 44.416 188.876 45.664ZM230.121 46.6V37.096C230.121 35.848 229.857 34.924 229.329 34.324C228.801 33.724 227.973 33.424 226.845 33.424C226.149 33.424 225.393 33.592 224.577 33.928C223.785 34.264 223.089 34.708 222.489 35.26C222.513 35.476 222.525 35.812 222.525 36.268V46.6L222.741 52H218.673L218.925 46.6V37.096C218.925 35.872 218.649 34.96 218.097 34.36C217.569 33.736 216.741 33.424 215.613 33.424C214.917 33.424 214.173 33.592 213.381 33.928C212.589 34.24 211.893 34.684 211.293 35.26V46.6L211.545 52H207.441L207.693 46.6V35.62L207.441 30.4H210.573L211.113 32.56C211.809 31.816 212.685 31.228 213.741 30.796C214.797 30.364 215.889 30.148 217.017 30.148C218.169 30.148 219.165 30.4 220.005 30.904C220.845 31.384 221.481 32.092 221.913 33.028C222.585 32.14 223.485 31.444 224.613 30.94C225.765 30.412 226.977 30.148 228.249 30.148C229.953 30.148 231.285 30.676 232.245 31.732C233.229 32.788 233.721 34.3 233.721 36.268V46.6L233.973 52H229.905L230.121 46.6ZM247.678 52.432C244.486 52.432 242.194 51.496 240.802 49.624C239.434 47.728 238.75 44.908 238.75 41.164C238.75 37.516 239.482 34.72 240.946 32.776C242.41 30.808 244.654 29.824 247.678 29.824C250.534 29.824 252.646 30.58 254.014 32.092C255.406 33.58 256.222 36.004 256.462 39.364L255.562 42.82H242.566C242.614 44.308 242.818 45.496 243.178 46.384C243.562 47.248 244.162 47.896 244.978 48.328C245.794 48.76 246.922 48.976 248.362 48.976C249.826 48.976 251.134 48.82 252.286 48.508C253.462 48.172 254.446 47.716 255.238 47.14L255.85 47.428L255.058 50.596C254.17 51.244 253.162 51.712 252.034 52C250.906 52.288 249.454 52.432 247.678 52.432ZM252.718 39.796C252.718 37.492 252.334 35.848 251.566 34.864C250.822 33.856 249.574 33.352 247.822 33.352C246.55 33.352 245.53 33.568 244.762 34C244.018 34.408 243.466 35.08 243.106 36.016C242.77 36.952 242.578 38.212 242.53 39.796H252.718ZM183.624 82.6V63.232L177.252 88H171.78L165.552 63.16V82.6L165.768 88H161.988L162.24 82.6V66.22L162.06 61H168.972L174.732 85.048L180.744 61H187.548L187.332 66.22V82.6L187.584 88H183.372L183.624 82.6ZM192.549 81.988C192.549 80.572 192.861 79.312 193.485 78.208C194.133 77.08 195.009 76.204 196.113 75.58C197.241 74.956 198.489 74.644 199.857 74.644C200.937 74.644 202.005 74.752 203.061 74.968C204.141 75.184 204.993 75.472 205.617 75.832V73.708C205.617 72.244 205.221 71.164 204.429 70.468C203.661 69.772 202.461 69.424 200.829 69.424C199.365 69.424 198.045 69.7 196.869 70.252C195.717 70.78 194.817 71.536 194.169 72.52L193.773 72.448L194.277 68.38C195.093 67.588 196.113 66.976 197.337 66.544C198.585 66.112 199.929 65.896 201.369 65.896C203.841 65.896 205.761 66.508 207.129 67.732C208.521 68.932 209.217 70.66 209.217 72.916V82.636L209.469 88H205.725L205.617 85.84C205.185 86.56 204.369 87.196 203.169 87.748C201.969 88.3 200.745 88.576 199.497 88.576C197.313 88.576 195.609 88 194.385 86.848C193.161 85.672 192.549 84.052 192.549 81.988ZM196.293 81.664C196.293 82.96 196.569 83.884 197.121 84.436C197.697 84.988 198.681 85.264 200.073 85.264C201.009 85.264 202.041 85.06 203.169 84.652C204.321 84.244 205.137 83.776 205.617 83.248V79.18C205.041 78.82 204.237 78.52 203.205 78.28C202.173 78.04 201.129 77.92 200.073 77.92C198.753 77.92 197.793 78.232 197.193 78.856C196.593 79.48 196.293 80.416 196.293 81.664ZM227.171 82.6V73.096C227.171 70.648 226.079 69.424 223.895 69.424C222.983 69.424 222.023 69.688 221.015 70.216C220.007 70.72 219.239 71.392 218.711 72.232V82.6L218.963 88H214.859L215.111 82.6V71.62L214.859 66.4H217.991L218.711 69.28C219.359 68.296 220.271 67.528 221.447 66.976C222.647 66.424 223.931 66.148 225.299 66.148C227.003 66.148 228.335 66.688 229.295 67.768C230.279 68.824 230.771 70.324 230.771 72.268V82.6L231.023 88H226.919L227.171 82.6ZM238.462 63.124C237.766 63.124 237.178 62.932 236.698 62.548C236.218 62.164 235.978 61.672 235.978 61.072C235.978 60.472 236.218 59.98 236.698 59.596C237.178 59.188 237.766 58.984 238.462 58.984C239.134 58.984 239.71 59.188 240.19 59.596C240.67 59.98 240.91 60.472 240.91 61.072C240.91 61.672 240.67 62.164 240.19 62.548C239.71 62.932 239.134 63.124 238.462 63.124ZM236.626 82.6V71.62L236.41 66.4H240.478L240.226 71.62V82.6L240.478 88H236.41L236.626 82.6ZM245.214 81.988C245.214 80.572 245.526 79.312 246.15 78.208C246.798 77.08 247.674 76.204 248.778 75.58C249.906 74.956 251.154 74.644 252.522 74.644C253.602 74.644 254.67 74.752 255.726 74.968C256.806 75.184 257.658 75.472 258.282 75.832V73.708C258.282 72.244 257.886 71.164 257.094 70.468C256.326 69.772 255.126 69.424 253.494 69.424C252.03 69.424 250.71 69.7 249.534 70.252C248.382 70.78 247.482 71.536 246.834 72.52L246.438 72.448L246.942 68.38C247.758 67.588 248.778 66.976 250.002 66.544C251.25 66.112 252.594 65.896 254.034 65.896C256.506 65.896 258.426 66.508 259.794 67.732C261.186 68.932 261.882 70.66 261.882 72.916V82.636L262.134 88H258.39L258.282 85.84C257.85 86.56 257.034 87.196 255.834 87.748C254.634 88.3 253.41 88.576 252.162 88.576C249.978 88.576 248.274 88 247.05 86.848C245.826 85.672 245.214 84.052 245.214 81.988ZM248.958 81.664C248.958 82.96 249.234 83.884 249.786 84.436C250.362 84.988 251.346 85.264 252.738 85.264C253.674 85.264 254.706 85.06 255.834 84.652C256.986 84.244 257.802 83.776 258.282 83.248V79.18C257.706 78.82 256.902 78.52 255.87 78.28C254.838 78.04 253.794 77.92 252.738 77.92C251.418 77.92 250.458 78.232 249.858 78.856C249.258 79.48 248.958 80.416 248.958 81.664Z" fill="white"/>
</svg>
