<svg width="52" height="57" viewBox="0 0 52 57" fill="none" xmlns="http://www.w3.org/2000/svg">
<g clip-path="url(#clip0_10_458)">
<path d="M26.1012 1.41187C12.0974 1.41187 0.745117 13.4992 0.745117 28.4098C0.745117 43.3204 12.0974 55.4078 26.1012 55.4078C40.1051 55.4078 51.4574 43.3204 51.4574 28.4098C51.4574 13.4992 40.1051 1.41187 26.1012 1.41187ZM37.8542 19.7726C37.4726 24.0417 35.8215 34.4014 34.9812 39.1829C34.6258 41.206 33.9258 41.8844 33.2484 41.9507C31.7761 42.0951 30.6578 40.9147 29.2316 39.9192C26.9999 38.3616 25.7392 37.392 23.5729 35.872C21.0695 34.1155 22.6924 33.1505 24.1191 31.5719C24.4925 31.159 30.9802 24.8758 31.1058 24.3058C31.1214 24.2345 31.1365 23.9683 30.9878 23.8285C30.8391 23.6888 30.6208 23.7361 30.4628 23.7741C30.239 23.8283 26.6739 26.3372 19.7674 31.3011C18.7556 32.0409 17.839 32.4014 17.0177 32.3825C16.1124 32.3617 14.3709 31.8376 13.0762 31.3894C11.4882 30.8398 10.2262 30.5493 10.3361 29.6159C10.3933 29.1297 11.0221 28.6325 12.2224 28.1245C19.6143 24.6955 24.5433 22.4347 27.0096 21.3423C34.0512 18.2237 35.5144 17.682 36.4681 17.664C36.6779 17.6603 37.1469 17.7156 37.4507 17.978C37.6527 18.165 37.7815 18.4259 37.8116 18.7092C37.863 19.0609 37.8773 19.4176 37.8542 19.7726Z" fill="#292E1E"/>
</g>
<defs>
<clipPath id="clip0_10_458">
<rect width="50.7122" height="55.7377" fill="white" transform="translate(0.745117 0.541016)"/>
</clipPath>
</defs>
</svg>
