<svg width="47" height="57" viewBox="0 0 47 57" fill="none" xmlns="http://www.w3.org/2000/svg">
<g clip-path="url(#clip0_10_460)">
<path d="M39.1884 11.1116C34.8776 6.53939 29.1367 4.02466 23.0357 4.02466C10.4427 4.02466 0.195479 14.8674 0.195479 28.1922C0.195479 32.4487 1.24489 36.6073 3.24084 40.2759L0 52.7951L12.1094 49.4313C15.4429 51.3582 19.1981 52.3706 23.0254 52.3706H23.0357C35.6184 52.3706 46.0919 41.5279 46.0919 28.2031C46.0919 21.7475 43.4993 15.6839 39.1884 11.1116ZM23.0357 48.2991C19.6199 48.2991 16.2762 47.3302 13.3646 45.5013L12.6753 45.0659L5.494 47.0581L7.40763 39.6445L6.95495 38.8825C5.0516 35.6819 4.05362 31.9915 4.05362 28.1922C4.05362 17.1208 12.5724 8.10701 23.046 8.10701C28.1181 8.10701 32.8817 10.1972 36.462 13.9965C40.0424 17.7958 42.2441 22.8361 42.2338 28.2031C42.2338 39.2853 33.499 48.2991 23.0357 48.2991ZM33.4475 33.2543C32.8817 32.9495 30.0729 31.4907 29.5482 31.2948C29.0235 31.0879 28.6429 30.9899 28.2622 31.5996C27.8815 32.2092 26.7909 33.5591 26.4514 33.9728C26.1222 34.3756 25.7827 34.43 25.2168 34.1252C21.8628 32.3507 19.6611 30.9573 17.4491 26.9403C16.8627 25.8734 18.0355 25.9496 19.1261 23.6417C19.3113 23.2389 19.2187 22.8906 19.0747 22.5857C18.9306 22.2809 17.7886 19.309 17.3153 18.1006C16.8524 16.9249 16.3791 17.0882 16.0293 17.0664C15.7001 17.0446 15.3194 17.0446 14.9387 17.0446C14.5581 17.0446 13.9408 17.197 13.416 17.7958C12.8913 18.4054 11.4201 19.8642 11.4201 22.8361C11.4201 25.8081 13.4675 28.6821 13.7453 29.0849C14.0334 29.4876 17.768 35.584 23.4987 38.2075C27.1202 39.8623 28.54 40.0038 30.3507 39.7207C31.4516 39.5466 33.7253 38.262 34.1986 36.8468C34.6718 35.4315 34.6718 34.2232 34.5278 33.9728C34.3941 33.7006 34.0134 33.5482 33.4475 33.2543Z" fill="#292E1E"/>
</g>
<defs>
<clipPath id="clip0_10_460">
<rect width="46.0919" height="55.7377" fill="white" transform="translate(0 0.541016)"/>
</clipPath>
</defs>
</svg>
