<svg width="85" height="85" viewBox="0 0 85 85" fill="none" xmlns="http://www.w3.org/2000/svg">
<path d="M69.0625 5.3125H58.4375C55.504 5.3125 53.125 7.6915 53.125 10.625C53.125 13.5585 55.504 15.9375 58.4375 15.9375H69.0625C71.996 15.9375 74.375 18.3165 74.375 21.25V63.75C74.375 66.6835 71.996 69.0625 69.0625 69.0625H58.4375C55.504 69.0625 53.125 71.4415 53.125 74.375C53.125 77.3085 55.504 79.6875 58.4375 79.6875H69.0625C77.8646 79.6875 85 72.5521 85 63.75V21.25C85 12.4479 77.8613 5.3125 69.0625 5.3125ZM56.877 38.748L35.627 17.498C33.5501 15.4212 30.1883 15.4245 28.1147 17.498C26.0396 19.5732 26.0396 22.9351 28.1147 25.0103L40.3086 37.1875H5.3125C2.37568 37.1875 0 39.5615 0 42.5C0 45.4385 2.37568 47.8125 5.3125 47.8125H40.3086L28.1264 59.9947C26.0512 62.0699 26.0512 65.4317 28.1264 67.5069C30.2016 69.5821 33.5634 69.5821 35.6386 67.5069L56.8886 46.2569C58.9522 44.1768 58.9521 40.8232 56.877 38.748Z" fill="white"/>
</svg>
