<svg width="78" height="69" viewBox="0 0 78 69" fill="none" xmlns="http://www.w3.org/2000/svg">
<path d="M13 0C14.5573 0 15.8979 1.10373 16.1958 2.62928L16.399 4.3125H73.3687C76.1177 4.3125 78.3114 7.0415 77.5396 9.79207L70.2271 35.6725C69.699 37.5322 67.9927 38.8125 66.0562 38.8125H23.1156L24.3615 45.2812H66.0833C67.8844 45.2812 69.3333 46.7232 69.3333 48.5156C69.3333 50.308 67.8844 51.75 66.0833 51.75H21.5448C20.1094 51.75 18.7687 50.6449 18.4708 49.1221L10.3106 6.46875H3.25C1.45573 6.46875 0 5.02002 0 3.23438C0 1.44873 1.45573 0 3.25 0H13ZM17.3333 62.5312C17.3333 58.96 20.2448 56.0625 23.8333 56.0625C27.4219 56.0625 30.3333 58.96 30.3333 62.5312C30.3333 66.1025 27.4219 69 23.8333 69C20.2448 69 17.3333 66.1025 17.3333 62.5312ZM69.3333 62.5312C69.3333 66.1025 66.4219 69 62.8333 69C59.2448 69 56.3333 66.1025 56.3333 62.5312C56.3333 58.96 59.2448 56.0625 62.8333 56.0625C66.4219 56.0625 69.3333 58.96 69.3333 62.5312Z" fill="#FFFBFB"/>
</svg>
